<svg id="visual" viewBox="0 0 900 600" width="900" height="600" xmlns="http://www.w3.org/2000/svg" xmlns:xlink="http://www.w3.org/1999/xlink" version="1.1"><g transform="translate(423.7806446130204 291.9806242989589)"><path d="M189.8 -263.7C246.7 -258.9 293.9 -207.3 293 -150.9C292.1 -94.6 243 -33.3 223.6 25C204.2 83.4 214.3 139 192.5 170.1C170.7 201.3 116.9 208.1 64.5 226.9C12 245.6 -39.1 276.3 -94.9 279.8C-150.8 283.3 -211.4 259.5 -219.6 211.7C-227.8 163.8 -183.5 91.9 -184.7 31.4C-185.9 -29.2 -232.6 -78.4 -239.6 -128.8C-246.7 -179.2 -214.2 -231 -167.6 -240.5C-121.1 -250.1 -60.6 -217.6 3 -222.2C66.5 -226.8 133 -268.6 189.8 -263.7" fill="#88b357"></path></g></svg>