<svg id="visual" viewBox="0 0 900 600" width="900" height="600" xmlns="http://www.w3.org/2000/svg" xmlns:xlink="http://www.w3.org/1999/xlink" version="1.1"><path d="M0 369L21.5 376.8C43 384.7 86 400.3 128.8 409.2C171.7 418 214.3 420 257.2 420.3C300 420.7 343 419.3 385.8 409.7C428.7 400 471.3 382 514.2 384.8C557 387.7 600 411.3 642.8 412.2C685.7 413 728.3 391 771.2 380.8C814 370.7 857 372.3 878.5 373.2L900 374L900 601L878.5 601C857 601 814 601 771.2 601C728.3 601 685.7 601 642.8 601C600 601 557 601 514.2 601C471.3 601 428.7 601 385.8 601C343 601 300 601 257.2 601C214.3 601 171.7 601 128.8 601C86 601 43 601 21.5 601L0 601Z" fill="#cfd8dc"></path><path d="M0 408L21.5 405.5C43 403 86 398 128.8 407.3C171.7 416.7 214.3 440.3 257.2 441.3C300 442.3 343 420.7 385.8 418.8C428.7 417 471.3 435 514.2 445C557 455 600 457 642.8 451.7C685.7 446.3 728.3 433.7 771.2 432.8C814 432 857 443 878.5 448.5L900 454L900 601L878.5 601C857 601 814 601 771.2 601C728.3 601 685.7 601 642.8 601C600 601 557 601 514.2 601C471.3 601 428.7 601 385.8 601C343 601 300 601 257.2 601C214.3 601 171.7 601 128.8 601C86 601 43 601 21.5 601L0 601Z" fill="#d7dde2"></path><path d="M0 444L21.5 444.3C43 444.7 86 445.3 128.8 449.3C171.7 453.3 214.3 460.7 257.2 461C300 461.3 343 454.7 385.8 460.3C428.7 466 471.3 484 514.2 488.8C557 493.7 600 485.3 642.8 478.5C685.7 471.7 728.3 466.3 771.2 466.3C814 466.3 857 471.7 878.5 474.3L900 477L900 601L878.5 601C857 601 814 601 771.2 601C728.3 601 685.7 601 642.8 601C600 601 557 601 514.2 601C471.3 601 428.7 601 385.8 601C343 601 300 601 257.2 601C214.3 601 171.7 601 128.8 601C86 601 43 601 21.5 601L0 601Z" fill="#dee3e7"></path><path d="M0 485L21.5 492C43 499 86 513 128.8 518.3C171.7 523.7 214.3 520.3 257.2 512.7C300 505 343 493 385.8 494.3C428.7 495.7 471.3 510.3 514.2 516.3C557 522.3 600 519.7 642.8 518C685.7 516.3 728.3 515.7 771.2 515.7C814 515.7 857 516.3 878.5 516.7L900 517L900 601L878.5 601C857 601 814 601 771.2 601C728.3 601 685.7 601 642.8 601C600 601 557 601 514.2 601C471.3 601 428.7 601 385.8 601C343 601 300 601 257.2 601C214.3 601 171.7 601 128.8 601C86 601 43 601 21.5 601L0 601Z" fill="#e5e9ec"></path><path d="M0 549L21.5 547.3C43 545.7 86 542.3 128.8 541.2C171.7 540 214.3 541 257.2 539.3C300 537.7 343 533.3 385.8 537.8C428.7 542.3 471.3 555.7 514.2 560.2C557 564.7 600 560.3 642.8 560C685.7 559.7 728.3 563.3 771.2 563C814 562.7 857 558.3 878.5 556.2L900 554L900 601L878.5 601C857 601 814 601 771.2 601C728.3 601 685.7 601 642.8 601C600 601 557 601 514.2 601C471.3 601 428.7 601 385.8 601C343 601 300 601 257.2 601C214.3 601 171.7 601 128.8 601C86 601 43 601 21.5 601L0 601Z" fill="#eceff1"></path></svg>